<svg width="640" height="800" viewBox="0 0 640 800" fill="none" xmlns="http://www.w3.org/2000/svg">
<g clip-path="url(#clip0_23_8)">
<g filter="url(#filter0_f_23_8)">
<path d="M419 541C473.676 541 518 505.854 518 462.5C518 419.146 473.676 384 419 384C364.324 384 320 419.146 320 462.5C320 505.854 364.324 541 419 541Z" fill="#30FBEF"/>
<path d="M211 517C272.856 517 323 449.843 323 367C323 284.157 272.856 217 211 217C149.144 217 99 284.157 99 367C99 449.843 149.144 517 211 517Z" fill="#F98010"/>
<path d="M323.5 548C388.393 548 441 495.17 441 430C441 364.83 388.393 312 323.5 312C258.607 312 206 364.83 206 430C206 495.17 258.607 548 323.5 548Z" fill="#A80176"/>
<path d="M171.19 378.717C221 415.393 288.792 407.894 322.607 361.969C356.422 316.043 343.455 249.082 293.644 212.407C243.834 175.731 176.042 183.23 142.227 229.155C108.413 275.081 121.379 342.042 171.19 378.717Z" fill="#5200FF"/>
<path d="M419 436C480.856 436 531 380.483 531 312C531 243.517 480.856 188 419 188C357.144 188 307 243.517 307 312C307 380.483 357.144 436 419 436Z" fill="url(#paint0_linear_23_8)"/>
</g>
</g>
<defs>
<filter id="filter0_f_23_8" x="-69" y="20" width="768" height="696" filterUnits="userSpaceOnUse" color-interpolation-filters="sRGB">
<feFlood flood-opacity="0" result="BackgroundImageFix"/>
<feBlend mode="normal" in="SourceGraphic" in2="BackgroundImageFix" result="shape"/>
<feGaussianBlur stdDeviation="84" result="effect1_foregroundBlur_23_8"/>
</filter>
<linearGradient id="paint0_linear_23_8" x1="419" y1="188" x2="419" y2="436" gradientUnits="userSpaceOnUse">
<stop stop-color="#3044FB"/>
<stop offset="1" stop-color="#3069FB"/>
</linearGradient>
<clipPath id="clip0_23_8">
<rect width="640" height="800" fill="white"/>
</clipPath>
</defs>
</svg>
