<svg xmlns="http://www.w3.org/2000/svg"><circle r="2" fill="#fff"/><circle cx="59.5" cy="-17" r="2" fill="#fff"/><circle cx="122" cy="-31" r="2" fill="#fff"/><circle cx="191.5" cy="-38" r="2" fill="#fff"/><circle cx="267" cy="-39" r="2" fill="#fff"/><circle cx="347.5" cy="-35" r="2" fill="#fff"/><circle cx="432" cy="-27" r="2" fill="#fff"/><circle cx="518.5" cy="-17" r="2" fill="#fff"/><circle cx="606" cy="-6" r="2" fill="#fff"/><circle cx="693.5" cy="5" r="2" fill="#fff"/><circle cx="783" cy="18" r="2" fill="#fff"/><circle cx="873.5" cy="32" r="2" fill="#fff"/><circle cx="962" cy="44" r="2" fill="#fff"/><circle cx="1046.5" cy="52" r="2" fill="#fff"/><circle cx="1124" cy="53" r="2" fill="#fff"/><circle cx="1193.5" cy="46" r="2" fill="#fff"/><circle cx="1257" cy="33" r="2" fill="#fff"/><circle cx="1316.5" cy="16" r="2" fill="#fff"/><circle cx="1376" cy="-1" r="2" fill="#fff"/><circle cx="1439.5" cy="-14" r="2" fill="#fff"/><circle cx="1507" cy="-23" r="2" fill="#fff"/><circle cx="1579.5" cy="-27" r="2" fill="#fff"/><circle cx="1655" cy="-28" r="2" fill="#fff"/><circle cx="1732.5" cy="-27" r="2" fill="#fff"/><circle cx="17" cy="93.5" r="2" fill="#fff"/><circle cx="76.5" cy="76.5" r="2" fill="#fff"/><circle cx="138" cy="61.5" r="2" fill="#fff"/><circle cx="205.5" cy="52.5" r="2" fill="#fff"/><circle cx="279" cy="49.5" r="2" fill="#fff"/><circle cx="358.5" cy="52.5" r="2" fill="#fff"/><circle cx="442" cy="59.5" r="2" fill="#fff"/><circle cx="527.5" cy="68.5" r="2" fill="#fff"/><circle cx="613" cy="77.5" r="2" fill="#fff"/><circle cx="698.5" cy="86.5" r="2" fill="#fff"/><circle cx="785" cy="96.5" r="2" fill="#fff"/><circle cx="872.5" cy="107.5" r="2" fill="#fff"/><circle cx="959" cy="117.5" r="2" fill="#fff"/><circle cx="1040.5" cy="122.5" r="2" fill="#fff"/><circle cx="1117" cy="122.5" r="2" fill="#fff"/><circle cx="1186.5" cy="115.5" r="2" fill="#fff"/><circle cx="1249" cy="101.5" r="2" fill="#fff"/><circle cx="1308.5" cy="84.5" r="2" fill="#fff"/><circle cx="1367" cy="66.5" r="2" fill="#fff"/><circle cx="1428.5" cy="51.5" r="2" fill="#fff"/><circle cx="1495" cy="41.5" r="2" fill="#fff"/><circle cx="1565.5" cy="35.5" r="2" fill="#fff"/><circle cx="1641" cy="34.5" r="2" fill="#fff"/><circle cx="1719.5" cy="36.5" r="2" fill="#fff"/><circle cx="31" cy="184" r="2" fill="#fff"/><circle cx="91.5" cy="168" r="2" fill="#fff"/><circle cx="153" cy="153" r="2" fill="#fff"/><circle cx="220.5" cy="144" r="2" fill="#fff"/><circle cx="293" cy="140" r="2" fill="#fff"/><circle cx="371.5" cy="142" r="2" fill="#fff"/><circle cx="452" cy="146" r="2" fill="#fff"/><circle cx="534.5" cy="152" r="2" fill="#fff"/><circle cx="616" cy="157" r="2" fill="#fff"/><circle cx="698.5" cy="163" r="2" fill="#fff"/><circle cx="781" cy="169" r="2" fill="#fff"/><circle cx="864.5" cy="176" r="2" fill="#fff"/><circle cx="948" cy="183" r="2" fill="#fff"/><circle cx="1029.5" cy="188" r="2" fill="#fff"/><circle cx="1107" cy="189" r="2" fill="#fff"/><circle cx="1178.5" cy="184" r="2" fill="#fff"/><circle cx="1244" cy="173" r="2" fill="#fff"/><circle cx="1305.5" cy="158" r="2" fill="#fff"/><circle cx="1365" cy="141" r="2" fill="#fff"/><circle cx="1426.5" cy="126" r="2" fill="#fff"/><circle cx="1490" cy="113" r="2" fill="#fff"/><circle cx="1557.5" cy="104" r="2" fill="#fff"/><circle cx="1631" cy="101" r="2" fill="#fff"/><circle cx="1709.5" cy="103" r="2" fill="#fff"/><circle cx="38" cy="267.5" r="2" fill="#fff"/><circle cx="101.5" cy="254.5" r="2" fill="#fff"/><circle cx="165" cy="241.5" r="2" fill="#fff"/><circle cx="233.5" cy="233.5" r="2" fill="#fff"/><circle cx="307" cy="230.5" r="2" fill="#fff"/><circle cx="383.5" cy="230.5" r="2" fill="#fff"/><circle cx="462" cy="232.5" r="2" fill="#fff"/><circle cx="540.5" cy="234.5" r="2" fill="#fff"/><circle cx="617" cy="234.5" r="2" fill="#fff"/><circle cx="693.5" cy="234.5" r="2" fill="#fff"/><circle cx="771" cy="235.5" r="2" fill="#fff"/><circle cx="850.5" cy="238.5" r="2" fill="#fff"/><circle cx="932" cy="243.5" r="2" fill="#fff"/><circle cx="1015.5" cy="250.5" r="2" fill="#fff"/><circle cx="1096" cy="254.5" r="2" fill="#fff"/><circle cx="1173.5" cy="255.5" r="2" fill="#fff"/><circle cx="1244" cy="249.5" r="2" fill="#fff"/><circle cx="1309.5" cy="238.5" r="2" fill="#fff"/><circle cx="1372" cy="224.5" r="2" fill="#fff"/><circle cx="1432.5" cy="208.5" r="2" fill="#fff"/><circle cx="1494" cy="193.5" r="2" fill="#fff"/><circle cx="1558.5" cy="181.5" r="2" fill="#fff"/><circle cx="1629" cy="175.5" r="2" fill="#fff"/><circle cx="1704.5" cy="174.5" r="2" fill="#fff"/><circle cx="39" cy="345" r="2" fill="#fff"/><circle cx="105.5" cy="335" r="2" fill="#fff"/><circle cx="173" cy="326" r="2" fill="#fff"/><circle cx="244.5" cy="321" r="2" fill="#fff"/><circle cx="319" cy="319" r="2" fill="#fff"/><circle cx="395.5" cy="319" r="2" fill="#fff"/><circle cx="471" cy="318" r="2" fill="#fff"/><circle cx="545.5" cy="316" r="2" fill="#fff"/><circle cx="617" cy="311" r="2" fill="#fff"/><circle cx="687.5" cy="305" r="2" fill="#fff"/><circle cx="760" cy="301" r="2" fill="#fff"/><circle cx="835.5" cy="300" r="2" fill="#fff"/><circle cx="916" cy="304" r="2" fill="#fff"/><circle cx="1001.5" cy="313" r="2" fill="#fff"/><circle cx="1087" cy="322" r="2" fill="#fff"/><circle cx="1171.5" cy="330" r="2" fill="#fff"/><circle cx="1249" cy="331" r="2" fill="#fff"/><circle cx="1319.5" cy="325" r="2" fill="#fff"/><circle cx="1385" cy="314" r="2" fill="#fff"/><circle cx="1445.5" cy="298" r="2" fill="#fff"/><circle cx="1505" cy="281" r="2" fill="#fff"/><circle cx="1566.5" cy="266" r="2" fill="#fff"/><circle cx="1634" cy="257" r="2" fill="#fff"/><circle cx="1707.5" cy="254" r="2" fill="#fff"/><circle cx="35" cy="417.5" r="2" fill="#fff"/><circle cx="105.5" cy="411.5" r="2" fill="#fff"/><circle cx="177" cy="406.5" r="2" fill="#fff"/><circle cx="251.5" cy="404.5" r="2" fill="#fff"/><circle cx="329" cy="405.5" r="2" fill="#fff"/><circle cx="405.5" cy="405.5" r="2" fill="#fff"/><circle cx="480" cy="403.5" r="2" fill="#fff"/><circle cx="549.5" cy="396.5" r="2" fill="#fff"/><circle cx="617" cy="387.5" r="2" fill="#fff"/><circle cx="682.5" cy="376.5" r="2" fill="#fff"/><circle cx="751" cy="368.5" r="2" fill="#fff"/><circle cx="823.5" cy="364.5" r="2" fill="#fff"/><circle cx="903" cy="367.5" r="2" fill="#fff"/><circle cx="989.5" cy="377.5" r="2" fill="#fff"/><circle cx="1081" cy="392.5" r="2" fill="#fff"/><circle cx="1172.5" cy="407.5" r="2" fill="#fff"/><circle cx="1257" cy="415.5" r="2" fill="#fff"/><circle cx="1333.5" cy="415.5" r="2" fill="#fff"/><circle cx="1401" cy="406.5" r="2" fill="#fff"/><circle cx="1462.5" cy="391.5" r="2" fill="#fff"/><circle cx="1521" cy="373.5" r="2" fill="#fff"/><circle cx="1581.5" cy="357.5" r="2" fill="#fff"/><circle cx="1646" cy="345.5" r="2" fill="#fff"/><circle cx="1716.5" cy="339.5" r="2" fill="#fff"/><circle cx="30" cy="489" r="2" fill="#fff"/><circle cx="104.5" cy="487" r="2" fill="#fff"/><circle cx="180" cy="486" r="2" fill="#fff"/><circle cx="257.5" cy="487" r="2" fill="#fff"/><circle cx="336" cy="489" r="2" fill="#fff"/><circle cx="413.5" cy="490" r="2" fill="#fff"/><circle cx="486" cy="486" r="2" fill="#fff"/><circle cx="554.5" cy="478" r="2" fill="#fff"/><circle cx="618" cy="465" r="2" fill="#fff"/><circle cx="679.5" cy="450" r="2" fill="#fff"/><circle cx="744" cy="438" r="2" fill="#fff"/><circle cx="814.5" cy="432" r="2" fill="#fff"/><circle cx="893" cy="434" r="2" fill="#fff"/><circle cx="981.5" cy="446" r="2" fill="#fff"/><circle cx="1077" cy="465" r="2" fill="#fff"/><circle cx="1173.5" cy="485" r="2" fill="#fff"/><circle cx="1264" cy="499" r="2" fill="#fff"/><circle cx="1345.5" cy="504" r="2" fill="#fff"/><circle cx="1416" cy="498" r="2" fill="#fff"/><circle cx="1479.5" cy="485" r="2" fill="#fff"/><circle cx="1539" cy="468" r="2" fill="#fff"/><circle cx="1598.5" cy="451" r="2" fill="#fff"/><circle cx="1661" cy="437" r="2" fill="#fff"/><circle cx="1729.5" cy="429" r="2" fill="#fff"/><circle cx="27" cy="562.5" r="2" fill="#fff"/><circle cx="104.5" cy="563.5" r="2" fill="#fff"/><circle cx="183" cy="565.5" r="2" fill="#fff"/><circle cx="261.5" cy="567.5" r="2" fill="#fff"/><circle cx="341" cy="570.5" r="2" fill="#fff"/><circle cx="418.5" cy="571.5" r="2" fill="#fff"/><circle cx="491" cy="567.5" r="2" fill="#fff"/><circle cx="557.5" cy="557.5" r="2" fill="#fff"/><circle cx="618" cy="541.5" r="2" fill="#fff"/><circle cx="678.5" cy="525.5" r="2" fill="#fff"/><circle cx="741" cy="511.5" r="2" fill="#fff"/><circle cx="808.5" cy="502.5" r="2" fill="#fff"/><circle cx="887" cy="504.5" r="2" fill="#fff"/><circle cx="975.5" cy="516.5" r="2" fill="#fff"/><circle cx="1073" cy="537.5" r="2" fill="#fff"/><circle cx="1172.5" cy="560.5" r="2" fill="#fff"/><circle cx="1267" cy="578.5" r="2" fill="#fff"/><circle cx="1352.5" cy="587.5" r="2" fill="#fff"/><circle cx="1427" cy="585.5" r="2" fill="#fff"/><circle cx="1493.5" cy="575.5" r="2" fill="#fff"/><circle cx="1555" cy="560.5" r="2" fill="#fff"/><circle cx="1614.5" cy="543.5" r="2" fill="#fff"/><circle cx="1676" cy="528.5" r="2" fill="#fff"/><circle cx="1742.5" cy="518.5" r="2" fill="#fff"/><circle cx="28" cy="640" r="2" fill="#fff"/><circle cx="107.5" cy="643" r="2" fill="#fff"/><circle cx="187" cy="646" r="2" fill="#fff"/><circle cx="266.5" cy="649" r="2" fill="#fff"/><circle cx="345" cy="651" r="2" fill="#fff"/><circle cx="421.5" cy="651" r="2" fill="#fff"/><circle cx="493" cy="646" r="2" fill="#fff"/><circle cx="558.5" cy="635" r="2" fill="#fff"/><circle cx="619" cy="619" r="2" fill="#fff"/><circle cx="677.5" cy="601" r="2" fill="#fff"/><circle cx="739" cy="586" r="2" fill="#fff"/><circle cx="805.5" cy="576" r="2" fill="#fff"/><circle cx="883" cy="577" r="2" fill="#fff"/><circle cx="970.5" cy="588" r="2" fill="#fff"/><circle cx="1068" cy="609" r="2" fill="#fff"/><circle cx="1167.5" cy="632" r="2" fill="#fff"/><circle cx="1264" cy="652" r="2" fill="#fff"/><circle cx="1351.5" cy="663" r="2" fill="#fff"/><circle cx="1430" cy="665" r="2" fill="#fff"/><circle cx="1499.5" cy="658" r="2" fill="#fff"/><circle cx="1564" cy="646" r="2" fill="#fff"/><circle cx="1625.5" cy="631" r="2" fill="#fff"/><circle cx="1688" cy="617" r="2" fill="#fff"/><circle cx="1751.5" cy="604" r="2" fill="#fff"/><circle cx="32" cy="720.5" r="2" fill="#fff"/><circle cx="111.5" cy="723.5" r="2" fill="#fff"/><circle cx="191" cy="726.5" r="2" fill="#fff"/><circle cx="269.5" cy="728.5" r="2" fill="#fff"/><circle cx="347" cy="729.5" r="2" fill="#fff"/><circle cx="422.5" cy="728.5" r="2" fill="#fff"/><circle cx="493" cy="722.5" r="2" fill="#fff"/><circle cx="558.5" cy="711.5" r="2" fill="#fff"/><circle cx="619" cy="695.5" r="2" fill="#fff"/><circle cx="677.5" cy="677.5" r="2" fill="#fff"/><circle cx="739" cy="662.5" r="2" fill="#fff"/><circle cx="805.5" cy="652.5" r="2" fill="#fff"/><circle cx="881" cy="651.5" r="2" fill="#fff"/><circle cx="966.5" cy="660.5" r="2" fill="#fff"/><circle cx="1060" cy="677.5" r="2" fill="#fff"/><circle cx="1157.5" cy="698.5" r="2" fill="#fff"/><circle cx="1253" cy="717.5" r="2" fill="#fff"/><circle cx="1341.5" cy="729.5" r="2" fill="#fff"/><circle cx="1422" cy="733.5" r="2" fill="#fff"/><circle cx="1496.5" cy="731.5" r="2" fill="#fff"/><circle cx="1565" cy="723.5" r="2" fill="#fff"/><circle cx="1629.5" cy="711.5" r="2" fill="#fff"/><circle cx="1692" cy="697.5" r="2" fill="#fff"/><circle cx="1755.5" cy="684.5" r="2" fill="#fff"/><circle cx="36" cy="801" r="2" fill="#fff"/><circle cx="116.5" cy="805" r="2" fill="#fff"/><circle cx="194" cy="806" r="2" fill="#fff"/><circle cx="270.5" cy="806" r="2" fill="#fff"/><circle cx="346" cy="805" r="2" fill="#fff"/><circle cx="419.5" cy="802" r="2" fill="#fff"/><circle cx="490" cy="796" r="2" fill="#fff"/><circle cx="556.5" cy="786" r="2" fill="#fff"/><circle cx="618" cy="771" r="2" fill="#fff"/><circle cx="678.5" cy="755" r="2" fill="#fff"/><circle cx="741" cy="741" r="2" fill="#fff"/><circle cx="808.5" cy="732" r="2" fill="#fff"/><circle cx="882" cy="729" r="2" fill="#fff"/><circle cx="963.5" cy="734" r="2" fill="#fff"/><circle cx="1052" cy="746" r="2" fill="#fff"/><circle cx="1143.5" cy="761" r="2" fill="#fff"/><circle cx="1235" cy="776" r="2" fill="#fff"/><circle cx="1322.5" cy="787" r="2" fill="#fff"/><circle cx="1405" cy="793" r="2" fill="#fff"/><circle cx="1482.5" cy="794" r="2" fill="#fff"/><circle cx="1556" cy="791" r="2" fill="#fff"/><circle cx="1624.5" cy="783" r="2" fill="#fff"/><circle cx="1689" cy="771" r="2" fill="#fff"/><circle cx="1752.5" cy="758" r="2" fill="#fff"/><circle cx="39" cy="880.5" r="2" fill="#fff"/><circle cx="117.5" cy="882.5" r="2" fill="#fff"/><circle cx="193" cy="881.5" r="2" fill="#fff"/><circle cx="267.5" cy="879.5" r="2" fill="#fff"/><circle cx="342" cy="877.5" r="2" fill="#fff"/><circle cx="414.5" cy="873.5" r="2" fill="#fff"/><circle cx="486" cy="868.5" r="2" fill="#fff"/><circle cx="553.5" cy="859.5" r="2" fill="#fff"/><circle cx="618" cy="847.5" r="2" fill="#fff"/><circle cx="680.5" cy="833.5" r="2" fill="#fff"/><circle cx="745" cy="821.5" r="2" fill="#fff"/><circle cx="812.5" cy="812.5" r="2" fill="#fff"/><circle cx="885" cy="808.5" r="2" fill="#fff"/><circle cx="961.5" cy="808.5" r="2" fill="#fff"/><circle cx="1044" cy="814.5" r="2" fill="#fff"/><circle cx="1129.5" cy="823.5" r="2" fill="#fff"/><circle cx="1215" cy="832.5" r="2" fill="#fff"/><circle cx="1299.5" cy="840.5" r="2" fill="#fff"/><circle cx="1382" cy="846.5" r="2" fill="#fff"/><circle cx="1462.5" cy="850.5" r="2" fill="#fff"/><circle cx="1540" cy="851.5" r="2" fill="#fff"/><circle cx="1612.5" cy="847.5" r="2" fill="#fff"/><circle cx="1680" cy="838.5" r="2" fill="#fff"/><circle cx="1745.5" cy="827.5" r="2" fill="#fff"/><circle cx="38" cy="956" r="2" fill="#fff"/><circle cx="115.5" cy="957" r="2" fill="#fff"/><circle cx="190" cy="955" r="2" fill="#fff"/><circle cx="263.5" cy="952" r="2" fill="#fff"/><circle cx="337" cy="949" r="2" fill="#fff"/><circle cx="410.5" cy="946" r="2" fill="#fff"/><circle cx="484" cy="943" r="2" fill="#fff"/><circle cx="553.5" cy="936" r="2" fill="#fff"/><circle cx="619" cy="925" r="2" fill="#fff"/><circle cx="683.5" cy="913" r="2" fill="#fff"/><circle cx="749" cy="902" r="2" fill="#fff"/><circle cx="816.5" cy="893" r="2" fill="#fff"/><circle cx="888" cy="888" r="2" fill="#fff"/><circle cx="962.5" cy="886" r="2" fill="#fff"/><circle cx="1039" cy="886" r="2" fill="#fff"/><circle cx="1117.5" cy="888" r="2" fill="#fff"/><circle cx="1198" cy="892" r="2" fill="#fff"/><circle cx="1278.5" cy="896" r="2" fill="#fff"/><circle cx="1360" cy="901" r="2" fill="#fff"/><circle cx="1442.5" cy="907" r="2" fill="#fff"/><circle cx="1522" cy="910" r="2" fill="#fff"/><circle cx="1597.5" cy="909" r="2" fill="#fff"/><circle cx="1668" cy="903" r="2" fill="#fff"/><circle cx="1735.5" cy="894" r="2" fill="#fff"/><circle cx="35" cy="1029.5" r="2" fill="#fff"/><circle cx="111.5" cy="1029.5" r="2" fill="#fff"/><circle cx="186" cy="1027.5" r="2" fill="#fff"/><circle cx="259.5" cy="1024.5" r="2" fill="#fff"/><circle cx="334" cy="1022.5" r="2" fill="#fff"/><circle cx="409.5" cy="1021.5" r="2" fill="#fff"/><circle cx="485" cy="1020.5" r="2" fill="#fff"/><circle cx="556.5" cy="1015.5" r="2" fill="#fff"/><circle cx="625" cy="1007.5" r="2" fill="#fff"/><circle cx="689.5" cy="995.5" r="2" fill="#fff"/><circle cx="755" cy="984.5" r="2" fill="#fff"/><circle cx="822.5" cy="975.5" r="2" fill="#fff"/><circle cx="892" cy="968.5" r="2" fill="#fff"/><circle cx="964.5" cy="964.5" r="2" fill="#fff"/><circle cx="1038" cy="961.5" r="2" fill="#fff"/><circle cx="1112.5" cy="959.5" r="2" fill="#fff"/><circle cx="1188" cy="958.5" r="2" fill="#fff"/><circle cx="1265.5" cy="959.5" r="2" fill="#fff"/><circle cx="1346" cy="963.5" r="2" fill="#fff"/><circle cx="1428.5" cy="969.5" r="2" fill="#fff"/><circle cx="1509" cy="973.5" r="2" fill="#fff"/><circle cx="1586.5" cy="974.5" r="2" fill="#fff"/><circle cx="1659" cy="970.5" r="2" fill="#fff"/><circle cx="1728.5" cy="963.5" r="2" fill="#fff"/><circle cx="29" cy="1100" r="2" fill="#fff"/><circle cx="105.5" cy="1100" r="2" fill="#fff"/><circle cx="180" cy="1098" r="2" fill="#fff"/><circle cx="255.5" cy="1097" r="2" fill="#fff"/><circle cx="333" cy="1098" r="2" fill="#fff"/><circle cx="412.5" cy="1101" r="2" fill="#fff"/><circle cx="491" cy="1103" r="2" fill="#fff"/><circle cx="565.5" cy="1101" r="2" fill="#fff"/><circle cx="635" cy="1094" r="2" fill="#fff"/><circle cx="700.5" cy="1083" r="2" fill="#fff"/><circle cx="765" cy="1071" r="2" fill="#fff"/><circle cx="830.5" cy="1060" r="2" fill="#fff"/><circle cx="899" cy="1052" r="2" fill="#fff"/><circle cx="969.5" cy="1046" r="2" fill="#fff"/><circle cx="1042" cy="1042" r="2" fill="#fff"/><circle cx="1114.5" cy="1038" r="2" fill="#fff"/><circle cx="1188" cy="1035" r="2" fill="#fff"/><circle cx="1263.5" cy="1034" r="2" fill="#fff"/><circle cx="1343" cy="1037" r="2" fill="#fff"/><circle cx="1424.5" cy="1042" r="2" fill="#fff"/><circle cx="1505" cy="1046" r="2" fill="#fff"/><circle cx="1582.5" cy="1047" r="2" fill="#fff"/><circle cx="1656" cy="1044" r="2" fill="#fff"/><circle cx="1726.5" cy="1038" r="2" fill="#fff"/><circle cx="21" cy="1168.5" r="2" fill="#fff"/><circle cx="97.5" cy="1168.5" r="2" fill="#fff"/><circle cx="174" cy="1168.5" r="2" fill="#fff"/><circle cx="251.5" cy="1169.5" r="2" fill="#fff"/><circle cx="333" cy="1174.5" r="2" fill="#fff"/><circle cx="416.5" cy="1181.5" r="2" fill="#fff"/><circle cx="498" cy="1186.5" r="2" fill="#fff"/><circle cx="575.5" cy="1187.5" r="2" fill="#fff"/><circle cx="647" cy="1182.5" r="2" fill="#fff"/><circle cx="713.5" cy="1172.5" r="2" fill="#fff"/><circle cx="778" cy="1160.5" r="2" fill="#fff"/><circle cx="841.5" cy="1147.5" r="2" fill="#fff"/><circle cx="908" cy="1137.5" r="2" fill="#fff"/><circle cx="977.5" cy="1130.5" r="2" fill="#fff"/><circle cx="1050" cy="1126.5" r="2" fill="#fff"/><circle cx="1122.5" cy="1122.5" r="2" fill="#fff"/><circle cx="1196" cy="1119.5" r="2" fill="#fff"/><circle cx="1272.5" cy="1119.5" r="2" fill="#fff"/><circle cx="1350" cy="1120.5" r="2" fill="#fff"/><circle cx="1430.5" cy="1124.5" r="2" fill="#fff"/><circle cx="1510" cy="1127.5" r="2" fill="#fff"/><circle cx="1585.5" cy="1126.5" r="2" fill="#fff"/><circle cx="1659" cy="1123.5" r="2" fill="#fff"/><circle cx="1729.5" cy="1117.5" r="2" fill="#fff"/><circle cx="11" cy="1235" r="2" fill="#fff"/><circle cx="87.5" cy="1235" r="2" fill="#fff"/><circle cx="165" cy="1236" r="2" fill="#fff"/><circle cx="246.5" cy="1241" r="2" fill="#fff"/><circle cx="331" cy="1249" r="2" fill="#fff"/><circle cx="418.5" cy="1260" r="2" fill="#fff"/><circle cx="504" cy="1269" r="2" fill="#fff"/><circle cx="584.5" cy="1273" r="2" fill="#fff"/><circle cx="659" cy="1271" r="2" fill="#fff"/><circle cx="726.5" cy="1262" r="2" fill="#fff"/><circle cx="791" cy="1250" r="2" fill="#fff"/><circle cx="853.5" cy="1236" r="2" fill="#fff"/><circle cx="919" cy="1225" r="2" fill="#fff"/><circle cx="988.5" cy="1218" r="2" fill="#fff"/><circle cx="1061" cy="1214" r="2" fill="#fff"/><circle cx="1135.5" cy="1212" r="2" fill="#fff"/><circle cx="1211" cy="1211" r="2" fill="#fff"/><circle cx="1286.5" cy="1210" r="2" fill="#fff"/><circle cx="1364" cy="1211" r="2" fill="#fff"/><circle cx="1442.5" cy="1213" r="2" fill="#fff"/><circle cx="1520" cy="1214" r="2" fill="#fff"/><circle cx="1594.5" cy="1212" r="2" fill="#fff"/><circle cx="1666" cy="1207" r="2" fill="#fff"/><circle cx="1735.5" cy="1200" r="2" fill="#fff"/><circle cx="-1" cy="1299.5" r="2" fill="#fff"/><circle cx="74.5" cy="1298.5" r="2" fill="#fff"/><circle cx="153" cy="1300.5" r="2" fill="#fff"/><circle cx="236.5" cy="1307.5" r="2" fill="#fff"/><circle cx="325" cy="1319.5" r="2" fill="#fff"/><circle cx="415.5" cy="1333.5" r="2" fill="#fff"/><circle cx="505" cy="1346.5" r="2" fill="#fff"/><circle cx="588.5" cy="1353.5" r="2" fill="#fff"/><circle cx="665" cy="1353.5" r="2" fill="#fff"/><circle cx="735.5" cy="1347.5" r="2" fill="#fff"/><circle cx="801" cy="1336.5" r="2" fill="#fff"/><circle cx="864.5" cy="1323.5" r="2" fill="#fff"/><circle cx="930" cy="1312.5" r="2" fill="#fff"/><circle cx="1000.5" cy="1306.5" r="2" fill="#fff"/><circle cx="1074" cy="1303.5" r="2" fill="#fff"/><circle cx="1151.5" cy="1304.5" r="2" fill="#fff"/><circle cx="1228" cy="1304.5" r="2" fill="#fff"/><circle cx="1304.5" cy="1304.5" r="2" fill="#fff"/><circle cx="1381" cy="1304.5" r="2" fill="#fff"/><circle cx="1456.5" cy="1303.5" r="2" fill="#fff"/><circle cx="1532" cy="1302.5" r="2" fill="#fff"/><circle cx="1605.5" cy="1299.5" r="2" fill="#fff"/><circle cx="1676" cy="1293.5" r="2" fill="#fff"/><circle cx="1746.5" cy="1287.5" r="2" fill="#fff"/><circle cx="-14" cy="1363" r="2" fill="#fff"/><circle cx="61.5" cy="1362" r="2" fill="#fff"/><circle cx="140" cy="1364" r="2" fill="#fff"/><circle cx="223.5" cy="1371" r="2" fill="#fff"/><circle cx="314" cy="1385" r="2" fill="#fff"/><circle cx="406.5" cy="1401" r="2" fill="#fff"/><circle cx="498" cy="1416" r="2" fill="#fff"/><circle cx="585.5" cy="1427" r="2" fill="#fff"/><circle cx="666" cy="1431" r="2" fill="#fff"/><circle cx="738.5" cy="1427" r="2" fill="#fff"/><circle cx="806" cy="1418" r="2" fill="#fff"/><circle cx="872.5" cy="1408" r="2" fill="#fff"/><circle cx="939" cy="1398" r="2" fill="#fff"/><circle cx="1010.5" cy="1393" r="2" fill="#fff"/><circle cx="1087" cy="1393" r="2" fill="#fff"/><circle cx="1166.5" cy="1396" r="2" fill="#fff"/><circle cx="1244" cy="1397" r="2" fill="#fff"/><circle cx="1321.5" cy="1398" r="2" fill="#fff"/><circle cx="1397" cy="1397" r="2" fill="#fff"/><circle cx="1470.5" cy="1394" r="2" fill="#fff"/><circle cx="1544" cy="1391" r="2" fill="#fff"/><circle cx="1616.5" cy="1387" r="2" fill="#fff"/><circle cx="1688" cy="1382" r="2" fill="#fff"/><circle cx="1759.5" cy="1377" r="2" fill="#fff"/><circle cx="-26" cy="1427.5" r="2" fill="#fff"/><circle cx="47.5" cy="1424.5" r="2" fill="#fff"/><circle cx="125" cy="1425.5" r="2" fill="#fff"/><circle cx="208.5" cy="1432.5" r="2" fill="#fff"/><circle cx="298" cy="1445.5" r="2" fill="#fff"/><circle cx="391.5" cy="1462.5" r="2" fill="#fff"/><circle cx="485" cy="1479.5" r="2" fill="#fff"/><circle cx="575.5" cy="1493.5" r="2" fill="#fff"/><circle cx="659" cy="1500.5" r="2" fill="#fff"/><circle cx="735.5" cy="1500.5" r="2" fill="#fff"/><circle cx="806" cy="1494.5" r="2" fill="#fff"/><circle cx="874.5" cy="1486.5" r="2" fill="#fff"/><circle cx="944" cy="1479.5" r="2" fill="#fff"/><circle cx="1017.5" cy="1476.5" r="2" fill="#fff"/><circle cx="1096" cy="1478.5" r="2" fill="#fff"/><circle cx="1176.5" cy="1482.5" r="2" fill="#fff"/><circle cx="1256" cy="1485.5" r="2" fill="#fff"/><circle cx="1333.5" cy="1486.5" r="2" fill="#fff"/><circle cx="1408" cy="1484.5" r="2" fill="#fff"/><circle cx="1481.5" cy="1481.5" r="2" fill="#fff"/><circle cx="1554" cy="1477.5" r="2" fill="#fff"/><circle cx="1626.5" cy="1473.5" r="2" fill="#fff"/><circle cx="1700" cy="1470.5" r="2" fill="#fff"/><circle cx="1773.5" cy="1467.5" r="2" fill="#fff"/><circle cx="-34" cy="1496" r="2" fill="#fff"/><circle cx="37.5" cy="1491" r="2" fill="#fff"/><circle cx="112" cy="1489" r="2" fill="#fff"/><circle cx="193.5" cy="1494" r="2" fill="#fff"/><circle cx="281" cy="1505" r="2" fill="#fff"/><circle cx="373.5" cy="1521" r="2" fill="#fff"/><circle cx="468" cy="1539" r="2" fill="#fff"/><circle cx="560.5" cy="1555" r="2" fill="#fff"/><circle cx="646" cy="1564" r="2" fill="#fff"/><circle cx="725.5" cy="1567" r="2" fill="#fff"/><circle cx="800" cy="1565" r="2" fill="#fff"/><circle cx="870.5" cy="1559" r="2" fill="#fff"/><circle cx="942" cy="1554" r="2" fill="#fff"/><circle cx="1017.5" cy="1553" r="2" fill="#fff"/><circle cx="1097" cy="1556" r="2" fill="#fff"/><circle cx="1178.5" cy="1561" r="2" fill="#fff"/><circle cx="1260" cy="1566" r="2" fill="#fff"/><circle cx="1338.5" cy="1568" r="2" fill="#fff"/><circle cx="1413" cy="1566" r="2" fill="#fff"/><circle cx="1486.5" cy="1563" r="2" fill="#fff"/><circle cx="1560" cy="1560" r="2" fill="#fff"/><circle cx="1634.5" cy="1558" r="2" fill="#fff"/><circle cx="1709" cy="1556" r="2" fill="#fff"/><circle cx="1785.5" cy="1556" r="2" fill="#fff"/><circle cx="-36" cy="1570.5" r="2" fill="#fff"/><circle cx="31.5" cy="1561.5" r="2" fill="#fff"/><circle cx="103" cy="1556.5" r="2" fill="#fff"/><circle cx="181.5" cy="1558.5" r="2" fill="#fff"/><circle cx="266" cy="1566.5" r="2" fill="#fff"/><circle cx="357.5" cy="1581.5" r="2" fill="#fff"/><circle cx="451" cy="1598.5" r="2" fill="#fff"/><circle cx="543.5" cy="1614.5" r="2" fill="#fff"/><circle cx="632" cy="1626.5" r="2" fill="#fff"/><circle cx="713.5" cy="1631.5" r="2" fill="#fff"/><circle cx="789" cy="1630.5" r="2" fill="#fff"/><circle cx="861.5" cy="1626.5" r="2" fill="#fff"/><circle cx="934" cy="1622.5" r="2" fill="#fff"/><circle cx="1008.5" cy="1620.5" r="2" fill="#fff"/><circle cx="1088" cy="1623.5" r="2" fill="#fff"/><circle cx="1170.5" cy="1629.5" r="2" fill="#fff"/><circle cx="1252" cy="1634.5" r="2" fill="#fff"/><circle cx="1331.5" cy="1637.5" r="2" fill="#fff"/><circle cx="1410" cy="1639.5" r="2" fill="#fff"/><circle cx="1485.5" cy="1638.5" r="2" fill="#fff"/><circle cx="1561" cy="1637.5" r="2" fill="#fff"/><circle cx="1636.5" cy="1636.5" r="2" fill="#fff"/><circle cx="1714" cy="1637.5" r="2" fill="#fff"/><circle cx="1792.5" cy="1639.5" r="2" fill="#fff"/><circle cx="-33" cy="1650" r="2" fill="#fff"/><circle cx="32.5" cy="1639" r="2" fill="#fff"/><circle cx="101" cy="1631" r="2" fill="#fff"/><circle cx="175.5" cy="1629" r="2" fill="#fff"/><circle cx="257" cy="1634" r="2" fill="#fff"/><circle cx="345.5" cy="1646" r="2" fill="#fff"/><circle cx="437" cy="1661" r="2" fill="#fff"/><circle cx="529.5" cy="1677" r="2" fill="#fff"/><circle cx="618" cy="1689" r="2" fill="#fff"/><circle cx="700.5" cy="1695" r="2" fill="#fff"/><circle cx="777" cy="1695" r="2" fill="#fff"/><circle cx="849.5" cy="1691" r="2" fill="#fff"/><circle cx="921" cy="1686" r="2" fill="#fff"/><circle cx="994.5" cy="1683" r="2" fill="#fff"/><circle cx="1071" cy="1683" r="2" fill="#fff"/><circle cx="1152.5" cy="1688" r="2" fill="#fff"/><circle cx="1234" cy="1693" r="2" fill="#fff"/><circle cx="1315.5" cy="1698" r="2" fill="#fff"/><circle cx="1397" cy="1703" r="2" fill="#fff"/><circle cx="1476.5" cy="1706" r="2" fill="#fff"/><circle cx="1555" cy="1708" r="2" fill="#fff"/><circle cx="1633.5" cy="1710" r="2" fill="#fff"/><circle cx="1713" cy="1713" r="2" fill="#fff"/><circle cx="1792.5" cy="1716" r="2" fill="#fff"/><circle cx="-26" cy="1733.5" r="2" fill="#fff"/><circle cx="36.5" cy="1719.5" r="2" fill="#fff"/><circle cx="103" cy="1709.5" r="2" fill="#fff"/><circle cx="174.5" cy="1704.5" r="2" fill="#fff"/><circle cx="254" cy="1707.5" r="2" fill="#fff"/><circle cx="339.5" cy="1716.5" r="2" fill="#fff"/><circle cx="429" cy="1729.5" r="2" fill="#fff"/><circle cx="519.5" cy="1743.5" r="2" fill="#fff"/><circle cx="608" cy="1755.5" r="2" fill="#fff"/><circle cx="691.5" cy="1762.5" r="2" fill="#fff"/><circle cx="768" cy="1762.5" r="2" fill="#fff"/><circle cx="839.5" cy="1757.5" r="2" fill="#fff"/><circle cx="908" cy="1749.5" r="2" fill="#fff"/><circle cx="978.5" cy="1743.5" r="2" fill="#fff"/><circle cx="1052" cy="1740.5" r="2" fill="#fff"/><circle cx="1129.5" cy="1741.5" r="2" fill="#fff"/><circle cx="1210" cy="1745.5" r="2" fill="#fff"/><circle cx="1293.5" cy="1752.5" r="2" fill="#fff"/><circle cx="1378" cy="1760.5" r="2" fill="#fff"/><circle cx="1461.5" cy="1767.5" r="2" fill="#fff"/><circle cx="1545" cy="1774.5" r="2" fill="#fff"/><circle cx="1626.5" cy="1779.5" r="2" fill="#fff"/><circle cx="1707" cy="1783.5" r="2" fill="#fff"/><circle cx="1786.5" cy="1786.5" r="2" fill="#fff"/></svg>