<svg xmlns="http://www.w3.org/2000/svg" fill="none" viewBox="0 0 120 156" id="CardDark" style="width:100%;height:100%;filter:none"><rect width="120" height="156" fill="#212121" rx="6"/><rect width="100" height="60" x="10" y="10" fill="#fff" fill-opacity="0.1" rx="6"/><path fill="#fff" fill-rule="evenodd" d="M69.158 47.123V32.877c0-1.12-.916-2.035-2.035-2.035H52.877c-1.12 0-2.035.916-2.035 2.035v14.246c0 1.12.916 2.035 2.035 2.035h14.246c1.12 0 2.035-.916 2.035-2.035Zm-12.72-5.597 2.544 3.063L62.544 40l4.579 6.105H52.877l3.562-4.579Z" clip-rule="evenodd" opacity="0.2"/><g fill="#fff" opacity="0.5"><rect width="37" height="6" x="10" y="86" rx="3"/><rect width="17" height="6" x="52" y="86" rx="3"/><rect width="12" height="6" x="74" y="86" rx="3"/></g><rect width="16" height="4" x="10" y="105" fill="#fff" fill-opacity="0.2" rx="2"/><rect width="43" height="4" x="32" y="105" fill="#fff" fill-opacity="0.2" rx="2"/><rect width="29" height="4" x="81" y="105" fill="#fff" fill-opacity="0.2" rx="2"/><rect width="28" height="4" x="10" y="116" fill="#fff" fill-opacity="0.2" rx="2"/><rect width="33" height="4" x="44" y="116" fill="#fff" fill-opacity="0.2" rx="2"/><rect width="27" height="4" x="83" y="116" fill="#fff" fill-opacity="0.2" rx="2"/><g fill="#fff" opacity="0.1"><circle cx="15" cy="141" r="5"/><rect width="26" height="3" x="26" y="139.5" rx="1.5"/></g><rect width="119" height="155" x="0.5" y="0.5" stroke="#fff" stroke-opacity="0.2" rx="5.5"/></svg>