<svg width="256" height="293" viewBox="0 0 256 293" fill="none" xmlns="http://www.w3.org/2000/svg">
<path d="M228.571 18.2856H27.4286C12.2857 18.2856 0 30.5714 0 45.7142V246.857C0 262 12.2857 274.286 27.4286 274.286H228.571C243.714 274.286 256 262 256 246.857V45.7142C256 30.5714 243.714 18.2856 228.571 18.2856ZM72.5714 219.714C69.4286 225.2 62.4 227.029 56.9714 223.886C51.4857 220.743 49.6571 213.714 52.8 208.286L60.9714 194.171C70.1714 191.371 77.7143 193.543 83.6 200.686L72.5714 219.714ZM151.943 188.914H48C41.7143 188.914 36.5714 183.771 36.5714 177.486C36.5714 171.2 41.7143 166.057 48 166.057H77.1429L114.514 101.371L102.8 81.1428C99.6571 75.6571 101.543 68.6856 106.971 65.5428C112.457 62.3999 119.429 64.2856 122.571 69.7142L127.657 78.5142L132.743 69.7142C135.886 64.2285 142.914 62.3999 148.343 65.5428C153.829 68.6856 155.657 75.7142 152.514 81.1428L103.486 166.057H138.971C150.514 166.057 156.971 179.6 151.943 188.914ZM208 188.914H191.429L202.629 208.286C205.771 213.771 203.886 220.743 198.457 223.886C192.971 227.029 186 225.143 182.857 219.714C164.057 187.2 150 162.743 140.571 146.514C131.029 129.943 137.829 113.371 144.629 107.771C152.114 120.743 163.314 140.171 178.286 166.057H208C214.286 166.057 219.429 171.2 219.429 177.486C219.429 183.829 214.286 188.914 208 188.914Z" fill="black"/>
</svg>
