<svg width="256" height="256" viewBox="0 0 256 256" fill="none" xmlns="http://www.w3.org/2000/svg">
<g clip-path="url(#clip0_73_34)">
<path d="M196 0H60C26.8629 0 0 26.8629 0 60V196C0 229.137 26.8629 256 60 256H196C229.137 256 256 229.137 256 196V60C256 26.8629 229.137 0 196 0Z" fill="#242938"/>
<path d="M85.9499 199.926L110.48 213.546H147.576L182.278 187.491L197.834 146.632L161.935 103.405L151.764 79.127L102.104 80.903L102.702 94.523L93.1289 112.287L78.1709 141.303L75.1799 165.581L85.9499 199.926Z" fill="#ECEFF1"/>
<path d="M187.064 114.656C177.491 101.036 169.713 92.7461 165.525 75.5741C161.337 58.4011 166.722 63.1391 163.132 48.3341C161.337 40.6371 158.345 35.3071 155.354 31.1621C151.764 27.0171 147.576 24.6481 145.182 24.0561C139.798 21.0961 127.233 16.3581 111.677 24.6481C95.5221 32.9381 97.3171 50.7031 100.309 86.8251C100.309 89.1931 99.7101 92.1551 98.5141 94.5231C96.1211 99.8531 91.9321 104.589 88.3431 108.735C84.1541 114.656 79.9661 120.578 76.9751 127.091C69.7951 140.711 63.2131 157.883 65.0081 164.397C68.0001 163.805 105.694 220.652 105.694 221.836C108.087 221.244 118.258 221.244 127.233 221.244C139.798 220.652 146.977 220.06 157.149 222.428C157.149 220.652 156.55 218.875 156.55 217.099C156.55 213.546 157.149 210.585 157.747 206.44C158.345 203.479 158.944 200.519 159.542 196.966C153.559 202.295 142.789 208.217 132.618 209.993C123.643 211.769 108.685 208.809 101.505 199.926C102.104 199.926 103.3 199.926 103.899 199.334C105.694 198.742 107.489 198.15 108.087 196.966C109.882 194.005 108.685 191.044 107.489 189.268C106.292 187.491 97.3171 180.977 93.1291 177.425C88.9411 173.872 86.5481 172.095 84.1541 169.727L79.3681 164.989C78.1711 163.805 77.5731 162.621 76.9751 162.028C75.7781 159.068 75.1801 155.515 75.7781 150.778C76.3761 144.264 78.7691 138.934 81.7611 133.013C82.9581 130.644 85.9491 125.907 85.9491 125.907C85.9491 125.907 75.7781 150.778 81.1631 158.476C81.1631 158.476 81.7611 150.778 84.1541 143.08C85.9491 137.75 88.9411 130.052 92.5311 125.907C96.1211 121.762 105.095 106.366 105.694 96.8911C105.694 92.7461 106.292 88.6011 106.292 85.6411C103.899 83.2711 145.781 77.3511 148.174 83.8641C148.772 86.2331 157.149 107.55 161.935 118.801C164.328 124.131 167.32 128.868 169.115 134.789C170.91 141.303 172.106 150.185 172.106 159.068C172.106 160.844 172.106 163.805 171.508 166.766C172.705 166.766 196.039 141.895 168.517 121.17C168.517 121.17 185.269 128.868 185.868 144.264C186.466 156.699 181.081 166.766 179.885 168.542C180.483 168.542 192.449 173.872 193.047 173.872C195.441 173.872 200.227 172.095 200.227 172.095C200.826 170.319 202.62 165.581 202.62 163.805C206.809 150.185 196.637 128.276 187.064 114.656Z" fill="#263238"/>
<path d="M111.078 75.574C115.374 75.574 118.856 70.271 118.856 63.731C118.856 57.19 115.374 51.888 111.078 51.888C106.783 51.888 103.3 57.19 103.3 63.731C103.3 70.271 106.783 75.574 111.078 75.574ZM138.002 76.758C143.62 76.758 148.174 70.66 148.174 63.138C148.174 55.617 143.62 49.519 138.002 49.519C132.385 49.519 127.831 55.617 127.831 63.139C127.831 70.66 132.385 76.758 138.002 76.758Z" fill="#ECEFF1"/>
<path d="M115.424 64.5411C114.927 60.6481 112.663 57.7241 110.368 58.0111C108.074 58.2981 106.616 61.6871 107.114 65.5811C107.611 69.4741 109.874 72.3981 112.169 72.1111C114.464 71.8231 115.921 68.4341 115.424 64.5411ZM137.404 73.2051C140.709 73.2051 143.387 69.7591 143.387 65.5071C143.387 61.2561 140.709 57.8091 137.404 57.8091C134.1 57.8091 131.421 61.2561 131.421 65.5071C131.421 69.7591 134.1 73.2051 137.404 73.2051Z" fill="#212121"/>
<path d="M216.98 195.781C214.587 194.597 210.398 192.82 206.808 187.491C205.014 184.53 205.612 176.24 202.62 172.687C200.825 170.319 198.432 171.503 197.834 171.503C192.449 172.687 179.884 180.977 171.508 171.503C170.311 170.319 168.516 168.542 165.525 168.542C162.533 168.542 161.337 169.726 160.14 172.095C158.943 174.464 158.943 176.24 158.943 182.162C158.943 186.899 158.943 192.228 158.345 196.373C157.148 206.44 155.354 212.362 155.354 218.283C155.354 224.797 157.148 228.942 159.542 230.718C161.337 232.495 164.328 233.679 170.91 233.679C177.491 233.679 181.679 231.311 185.868 227.165C188.859 224.205 191.252 223.02 199.629 217.099C206.21 212.954 216.382 207.624 218.176 205.848C219.373 204.664 221.168 204.071 221.168 200.518C221.168 197.558 218.775 196.373 216.98 195.781ZM96.7189 197.558C90.7359 188.083 90.1369 186.307 85.9489 180.385C82.3589 174.464 74.5809 163.213 69.7949 163.213C66.2049 163.213 64.4099 164.989 62.0169 167.358C59.6229 169.726 57.2299 175.056 53.0419 178.017C49.4519 180.977 39.2809 180.385 36.8879 183.938C34.4939 187.491 39.2809 192.821 39.2809 201.703C39.2809 205.256 36.2889 207.624 35.6909 209.993C35.0929 212.954 34.4939 214.73 35.6909 217.099C38.0839 220.652 41.0759 221.836 61.4179 225.981C72.1879 228.35 82.3589 234.271 88.9409 234.864C95.5219 235.456 106.89 234.864 106.89 218.875C107.489 209.401 102.104 207.032 96.7189 197.558ZM108.087 90.378C104.497 88.009 101.505 85.64 101.505 82.088C101.505 78.535 103.899 77.35 107.489 74.39C108.087 73.797 114.668 67.876 121.25 67.876C127.831 67.876 135.609 72.021 138.601 73.206C143.986 74.389 149.37 75.574 148.772 79.719C148.174 85.64 147.576 86.825 141.592 89.786C137.404 90.97 129.626 97.484 124.241 97.484C121.848 97.484 118.258 97.484 115.865 96.891C114.07 96.299 111.078 93.338 108.087 90.378Z" fill="#FFC107"/>
<path d="M106.89 85.64C108.087 86.825 109.882 88.01 111.677 88.601C112.873 89.193 114.668 89.786 114.668 89.786H120.053C123.045 89.786 127.233 88.601 131.421 86.233C135.609 84.456 136.208 83.272 139.199 82.088C142.191 80.311 145.182 78.535 143.986 77.943C142.789 77.35 141.592 77.943 137.404 80.311C133.814 82.68 130.823 83.864 127.233 85.641C125.438 86.233 123.045 87.417 121.25 87.417H115.865C114.07 87.417 112.873 86.825 111.078 86.233C109.882 85.64 109.283 85.048 108.685 85.048C107.489 84.456 105.095 82.088 103.899 81.495C103.899 81.495 102.702 81.495 103.3 82.088L106.89 85.64ZM124.84 72.613C125.438 73.797 126.635 73.797 127.233 74.389C127.831 74.982 128.429 74.982 128.429 74.982C129.028 74.389 128.429 73.205 127.831 73.205C127.831 72.021 124.84 72.021 124.84 72.613ZM115.267 73.797C115.267 74.39 116.463 74.982 116.463 74.39C117.062 73.797 117.66 73.205 118.258 73.205C119.455 72.613 118.856 72.021 117.062 72.021C115.865 72.613 115.865 73.205 115.267 73.797Z" fill="#634703"/>
<path d="M173.303 178.609V180.385C174.5 182.754 177.491 183.346 179.884 183.346C183.474 183.346 187.064 180.977 188.859 178.609C188.859 178.017 189.457 177.424 190.056 176.832C191.252 175.056 191.851 173.872 192.449 173.279C192.449 173.279 191.851 172.687 191.851 172.095C191.252 170.911 189.457 169.726 187.064 169.134C185.269 168.542 182.278 167.95 181.081 167.95C175.696 167.358 172.705 169.134 170.91 170.911C170.91 170.911 171.508 170.911 171.508 171.503C172.705 172.687 173.303 173.872 173.303 175.648C173.901 176.832 173.303 177.424 173.303 178.609Z" fill="#455A64"/>
</g>
<defs>
<clipPath id="clip0_73_34">
<rect width="256" height="256" fill="white"/>
</clipPath>
</defs>
</svg>
