<svg width="256" height="256" viewBox="0 0 256 256" fill="none" xmlns="http://www.w3.org/2000/svg">
<g clip-path="url(#clip0_73_28)">
<path d="M128 0C139.75 0 151.083 1.5 162 4.5C172.917 7.5 183.125 11.7917 192.625 17.375C202.125 22.9583 210.75 29.625 218.5 37.375C226.25 45.125 232.917 53.7917 238.5 63.375C244.083 72.9583 248.375 83.1667 251.375 94C254.375 104.833 255.917 116.167 256 128C256 139.75 254.5 151.083 251.5 162C248.5 172.917 244.208 183.125 238.625 192.625C233.042 202.125 226.375 210.75 218.625 218.5C210.875 226.25 202.208 232.917 192.625 238.5C183.042 244.083 172.833 248.375 162 251.375C151.167 254.375 139.833 255.917 128 256C116.25 256 104.917 254.5 94 251.5C83.0833 248.5 72.875 244.208 63.375 238.625C53.875 233.042 45.25 226.375 37.5 218.625C29.75 210.875 23.0833 202.208 17.5 192.625C11.9167 183.042 7.625 172.875 4.625 162.125C1.625 151.375 0.0833333 140 0 128C0 116.25 1.5 104.917 4.5 94C7.5 83.0833 11.7917 72.875 17.375 63.375C22.9583 53.875 29.625 45.25 37.375 37.5C45.125 29.75 53.7917 23.0833 63.375 17.5C72.9583 11.9167 83.125 7.625 93.875 4.625C104.625 1.625 116 0.0833333 128 0ZM128 240C138.25 240 148.125 238.667 157.625 236C167.125 233.333 176.042 229.583 184.375 224.75C192.708 219.917 200.292 214.042 207.125 207.125C213.958 200.208 219.792 192.667 224.625 184.5C229.458 176.333 233.25 167.417 236 157.75C238.75 148.083 240.083 138.167 240 128C240 117.75 238.667 107.875 236 98.375C233.333 88.875 229.583 79.9583 224.75 71.625C219.917 63.2917 214.042 55.7083 207.125 48.875C200.208 42.0417 192.667 36.2083 184.5 31.375C176.333 26.5417 167.417 22.75 157.75 20C148.083 17.25 138.167 15.9167 128 16C117.75 16 107.875 17.3333 98.375 20C88.875 22.6667 79.9583 26.4167 71.625 31.25C63.2917 36.0833 55.7083 41.9583 48.875 48.875C42.0417 55.7917 36.2083 63.3333 31.375 71.5C26.5417 79.6667 22.75 88.5833 20 98.25C17.25 107.917 15.9167 117.833 16 128C16 138.25 17.3333 148.125 20 157.625C22.6667 167.125 26.4167 176.042 31.25 184.375C36.0833 192.708 41.9583 200.292 48.875 207.125C55.7917 213.958 63.3333 219.792 71.5 224.625C79.6667 229.458 88.5833 233.25 98.25 236C107.917 238.75 117.833 240.083 128 240ZM202.625 130L208.625 112H218L207.375 144H198L192 126L186 144H176.625L166 112H175.375L181.375 130L187.375 112H196.625L202.625 130ZM144.625 112H154L143.375 144H134L128 126L122 144H112.625L102 112H111.375L117.375 130L123.375 112H132.625L138.625 130L144.625 112ZM80.625 112H90L79.375 144H70L64 126L58 144H48.625L38 112H47.375L53.375 130L59.375 112H68.625L74.625 130L80.625 112Z" fill="black"/>
</g>
<defs>
<clipPath id="clip0_73_28">
<rect width="256" height="256" fill="white"/>
</clipPath>
</defs>
</svg>
