<svg width="256" height="256" viewBox="0 0 256 256" fill="none" xmlns="http://www.w3.org/2000/svg">
<path d="M28.4445 71.1111H39.2071V184.889H28.4445V71.1111ZM44.5902 71.1111H66.1156V184.889H44.5902V71.1111ZM71.4951 71.1111H93.0205V184.889H71.4951V71.1111ZM130.692 71.1111H152.217V184.889H130.692V71.1111ZM173.742 71.1111H195.268V184.889H173.742V71.1111ZM98.4036 71.1111H109.166V184.889H98.4036V71.1111ZM114.546 71.1111H125.308V184.889H114.546V71.1111ZM157.596 71.1111H168.359V184.889H157.596V71.1111ZM200.647 71.1111H211.41V184.889H200.647V71.1111ZM216.793 71.1111H227.556V184.889H216.793V71.1111Z" fill="black"/>
<path d="M17.7778 60.4443H238.222V195.555H17.7778V60.4443Z" fill="white"/>
<path d="M28.4445 71.1111H39.2071V184.889H28.4445V71.1111ZM44.5902 71.1111H66.1156V184.889H44.5902V71.1111ZM71.4951 71.1111H93.0205V184.889H71.4951V71.1111Z" fill="#D22F27"/>
<path d="M130.692 71.1111H152.217V184.889H130.692V71.1111ZM173.742 71.1111H195.268V184.889H173.742V71.1111Z" fill="#61B2E4"/>
<path d="M98.4036 71.1111H109.166V184.889H98.4036V71.1111ZM114.546 71.1111H125.308V184.889H114.546V71.1111Z" fill="#5C9E31"/>
<path d="M157.596 71.1111H168.359V184.889H157.596V71.1111Z" fill="#61B2E4"/>
<path d="M200.647 71.1111H211.41V184.889H200.647V71.1111ZM216.793 71.1111H227.556V184.889H216.793V71.1111Z" fill="#5C9E31"/>
<path d="M17.7778 60.4443H238.222V195.555H17.7778V60.4443Z" stroke="black" stroke-width="2" stroke-linejoin="round"/>
</svg>
