<svg width="256" height="256" viewBox="0 0 256 256" fill="none" xmlns="http://www.w3.org/2000/svg">
<path d="M159.68 202.133L132.373 137.813C121.493 159.04 109.547 181.333 99.3066 202.133C99.2 202.24 94.2933 202.133 94.2933 202.133C78.6133 165.333 62.4 129.067 46.6133 92.5868C42.9866 83.6268 30.1866 69.3334 21.3333 69.3334V64.5334H75.3066V69.3334C68.9066 69.3334 58.0266 73.6001 60.8 80.5334C68.48 96.9601 95.36 160.64 102.72 176.853C107.733 166.827 121.92 140.373 128 129.173C123.2 119.787 108.053 84.5868 103.573 75.8401C100.16 70.0801 91.52 69.3334 84.9066 69.3334C84.9066 67.7334 85.0133 66.6668 84.9066 64.6401L132.48 64.7468V69.0134C125.973 69.3334 119.893 71.5734 122.667 77.7601C129.067 90.9868 132.8 100.48 138.667 112.747C140.48 109.12 150.08 89.3868 154.667 79.0401C157.44 72.1068 153.28 69.3334 141.76 69.3334C141.867 68.0534 141.867 65.8134 141.867 64.7468C156.693 64.6401 178.987 64.6401 182.933 64.5334V69.0134C175.36 69.3334 167.573 73.3868 163.52 79.5734L144 120.533C145.92 125.973 164.907 168.107 166.933 172.8L208 78.6134C204.8 70.9334 195.627 69.3334 192 69.3334V64.5334L234.667 64.8534V69.3334C225.28 69.3334 219.413 74.6668 216 82.6668C207.467 101.76 181.333 162.56 164.267 202.133H159.68Z" fill="black"/>
</svg>
